<?xml version="1.0" encoding="UTF-8"?>
<svg id="a" xmlns="http://www.w3.org/2000/svg" xmlns:xlink="http://www.w3.org/1999/xlink" version="1.1" viewBox="0 0 700 700">
  <!-- Generator: Adobe Illustrator 30.1.0, SVG Export Plug-In . SVG Version: 2.1.1 Build 136)  -->
  <defs>
    <style>
      .st0 {
        fill: url(#linear-gradient2);
      }

      .st1 {
        fill: url(#linear-gradient1);
      }

      .st2 {
        fill: url(#linear-gradient9);
      }

      .st3 {
        fill: url(#linear-gradient3);
      }

      .st4 {
        fill: url(#linear-gradient6);
      }

      .st5 {
        fill: url(#linear-gradient8);
      }

      .st6 {
        fill: url(#linear-gradient7);
      }

      .st7 {
        fill: url(#linear-gradient5);
      }

      .st8 {
        fill: url(#linear-gradient4);
      }

      .st9 {
        fill: url(#linear-gradient31);
      }

      .st10 {
        fill: url(#linear-gradient30);
      }

      .st11 {
        fill: url(#linear-gradient38);
      }

      .st12 {
        fill: url(#linear-gradient32);
      }

      .st13 {
        fill: url(#linear-gradient61);
      }

      .st14 {
        fill: url(#linear-gradient60);
      }

      .st15 {
        fill: url(#linear-gradient62);
      }

      .st16 {
        fill: url(#linear-gradient69);
      }

      .st17 {
        fill: url(#linear-gradient65);
      }

      .st18 {
        fill: url(#linear-gradient68);
      }

      .st19 {
        fill: url(#linear-gradient67);
      }

      .st20 {
        fill: url(#linear-gradient64);
      }

      .st21 {
        fill: url(#linear-gradient63);
      }

      .st22 {
        fill: url(#linear-gradient66);
      }

      .st23 {
        fill: url(#linear-gradient71);
      }

      .st24 {
        fill: url(#linear-gradient70);
      }

      .st25 {
        fill: url(#linear-gradient39);
      }

      .st26 {
        fill: url(#linear-gradient34);
      }

      .st27 {
        fill: url(#linear-gradient37);
      }

      .st28 {
        fill: url(#linear-gradient35);
      }

      .st29 {
        fill: url(#linear-gradient33);
      }

      .st30 {
        fill: url(#linear-gradient36);
      }

      .st31 {
        fill: url(#linear-gradient80);
      }

      .st32 {
        fill: url(#linear-gradient81);
      }

      .st33 {
        fill: url(#linear-gradient40);
      }

      .st34 {
        fill: url(#linear-gradient41);
      }

      .st35 {
        fill: url(#linear-gradient42);
      }

      .st36 {
        fill: url(#linear-gradient46);
      }

      .st37 {
        fill: url(#linear-gradient48);
      }

      .st38 {
        fill: url(#linear-gradient43);
      }

      .st39 {
        fill: url(#linear-gradient44);
      }

      .st40 {
        fill: url(#linear-gradient47);
      }

      .st41 {
        fill: url(#linear-gradient45);
      }

      .st42 {
        fill: url(#linear-gradient49);
      }

      .st43 {
        fill: url(#linear-gradient83);
      }

      .st44 {
        fill: url(#linear-gradient79);
      }

      .st45 {
        fill: url(#linear-gradient78);
      }

      .st46 {
        fill: url(#linear-gradient77);
      }

      .st47 {
        fill: url(#linear-gradient76);
      }

      .st48 {
        fill: url(#linear-gradient82);
      }

      .st49 {
        fill: url(#linear-gradient75);
      }

      .st50 {
        fill: url(#linear-gradient73);
      }

      .st51 {
        fill: url(#linear-gradient74);
      }

      .st52 {
        fill: url(#linear-gradient72);
      }

      .st53 {
        fill: url(#linear-gradient50);
      }

      .st54 {
        fill: url(#linear-gradient51);
      }

      .st55 {
        fill: url(#linear-gradient52);
      }

      .st56 {
        fill: url(#linear-gradient59);
      }

      .st57 {
        fill: url(#linear-gradient53);
      }

      .st58 {
        fill: url(#linear-gradient56);
      }

      .st59 {
        fill: url(#linear-gradient54);
      }

      .st60 {
        fill: url(#linear-gradient57);
      }

      .st61 {
        fill: url(#linear-gradient55);
      }

      .st62 {
        fill: url(#linear-gradient58);
      }

      .st63 {
        fill: url(#linear-gradient28);
      }

      .st64 {
        fill: url(#linear-gradient29);
      }

      .st65 {
        fill: url(#linear-gradient18);
      }

      .st66 {
        fill: url(#linear-gradient13);
      }

      .st67 {
        fill: url(#linear-gradient12);
      }

      .st68 {
        fill: url(#linear-gradient15);
      }

      .st69 {
        fill: url(#linear-gradient16);
      }

      .st70 {
        fill: url(#linear-gradient11);
      }

      .st71 {
        fill: url(#linear-gradient10);
      }

      .st72 {
        fill: url(#linear-gradient17);
      }

      .st73 {
        fill: url(#linear-gradient14);
      }

      .st74 {
        fill: url(#linear-gradient19);
      }

      .st75 {
        fill: url(#linear-gradient23);
      }

      .st76 {
        fill: url(#linear-gradient22);
      }

      .st77 {
        fill: url(#linear-gradient24);
      }

      .st78 {
        fill: url(#linear-gradient25);
      }

      .st79 {
        fill: url(#linear-gradient21);
      }

      .st80 {
        fill: url(#linear-gradient20);
      }

      .st81 {
        fill: url(#linear-gradient27);
      }

      .st82 {
        fill: url(#linear-gradient26);
      }

      .st83 {
        fill: url(#linear-gradient);
      }
    </style>
    <linearGradient id="linear-gradient" x1="360.5" y1="359.3" x2="354.5" y2="828.3" gradientUnits="userSpaceOnUse">
      <stop offset="0" stop-color="#7701e5"/>
      <stop offset="1" stop-color="#0f76ef"/>
    </linearGradient>
    <linearGradient id="linear-gradient1" x1="325.2" y1="358.8" x2="319.2" y2="827.8" xlink:href="#linear-gradient"/>
    <linearGradient id="linear-gradient2" x1="290.3" y1="358.4" x2="284.3" y2="827.4" xlink:href="#linear-gradient"/>
    <linearGradient id="linear-gradient3" x1="256.9" y1="357.9" x2="250.9" y2="826.9" xlink:href="#linear-gradient"/>
    <linearGradient id="linear-gradient4" x1="225.5" y1="357.5" x2="219.5" y2="826.5" gradientTransform="translate(567.3 66.6) rotate(57.6)" xlink:href="#linear-gradient"/>
    <linearGradient id="linear-gradient5" x1="196.9" y1="357.2" x2="190.9" y2="826.2" gradientTransform="translate(465.4 34.6) rotate(49)" xlink:href="#linear-gradient"/>
    <linearGradient id="linear-gradient6" x1="171.7" y1="356.8" x2="165.7" y2="825.8" gradientTransform="translate(366.9 10) rotate(40.4)" xlink:href="#linear-gradient"/>
    <linearGradient id="linear-gradient7" x1="150.5" y1="356.6" x2="144.5" y2="825.6" gradientTransform="translate(272.7 -7.2) rotate(31.8)" xlink:href="#linear-gradient"/>
    <linearGradient id="linear-gradient8" x1="133.7" y1="356.4" x2="127.7" y2="825.4" gradientTransform="translate(185.8 -16.3) rotate(23.3)" xlink:href="#linear-gradient"/>
    <linearGradient id="linear-gradient9" x1="121.8" y1="356.2" x2="115.8" y2="825.2" gradientTransform="translate(107.9 -17.3) rotate(14.7)" xlink:href="#linear-gradient"/>
    <linearGradient id="linear-gradient10" x1="115" y1="356.1" x2="109" y2="825.1" gradientTransform="translate(40.7 -10.1) rotate(6.1)" xlink:href="#linear-gradient"/>
    <linearGradient id="linear-gradient11" x1="113.4" y1="356.1" x2="107.4" y2="825.1" gradientTransform="translate(448.3 211.9) rotate(87.6)" xlink:href="#linear-gradient"/>
    <linearGradient id="linear-gradient12" x1="117.1" y1="356.1" x2="111.1" y2="825.1" gradientTransform="translate(394.4 130.9) rotate(79)" xlink:href="#linear-gradient"/>
    <linearGradient id="linear-gradient13" x1="126" y1="356.3" x2="120" y2="825.3" gradientTransform="translate(339.5 60.2) rotate(70.4)" xlink:href="#linear-gradient"/>
    <linearGradient id="linear-gradient14" x1="139.8" y1="356.4" x2="133.8" y2="825.4" gradientTransform="translate(284.7 1.2) rotate(61.8)" xlink:href="#linear-gradient"/>
    <linearGradient id="linear-gradient15" x1="158.5" y1="356.7" x2="152.5" y2="825.7" gradientTransform="translate(231.6 -44.7) rotate(53.3)" xlink:href="#linear-gradient"/>
    <linearGradient id="linear-gradient16" x1="181.4" y1="357" x2="175.4" y2="826" gradientTransform="translate(180.9 -76.6) rotate(44.7)" xlink:href="#linear-gradient"/>
    <linearGradient id="linear-gradient17" x1="208" y1="357.3" x2="202" y2="826.3" gradientTransform="translate(134.2 -93.6) rotate(36.1)" xlink:href="#linear-gradient"/>
    <linearGradient id="linear-gradient18" x1="237.7" y1="357.7" x2="231.7" y2="826.7" gradientTransform="translate(92.1 -95.3) rotate(27.6)" xlink:href="#linear-gradient"/>
    <linearGradient id="linear-gradient19" x1="270.1" y1="358.1" x2="264.1" y2="827.1" gradientTransform="translate(55.9 -81.9) rotate(19)" xlink:href="#linear-gradient"/>
    <linearGradient id="linear-gradient20" x1="304.2" y1="358.5" x2="298.2" y2="827.5" xlink:href="#linear-gradient"/>
    <linearGradient id="linear-gradient21" x1="339.3" y1="359" x2="333.3" y2="828" xlink:href="#linear-gradient"/>
    <linearGradient id="linear-gradient22" x1="374.5" y1="359.4" x2="368.5" y2="828.4" xlink:href="#linear-gradient"/>
    <linearGradient id="linear-gradient23" x1="409.4" y1="359.9" x2="403.4" y2="828.9" xlink:href="#linear-gradient"/>
    <linearGradient id="linear-gradient24" x1="442.8" y1="360.3" x2="436.8" y2="829.3" xlink:href="#linear-gradient"/>
    <linearGradient id="linear-gradient25" x1="474.3" y1="360.7" x2="468.3" y2="829.7" xlink:href="#linear-gradient"/>
    <linearGradient id="linear-gradient26" x1="502.8" y1="361.1" x2="496.8" y2="830.1" xlink:href="#linear-gradient"/>
    <linearGradient id="linear-gradient27" x1="528" y1="361.4" x2="522" y2="830.4" xlink:href="#linear-gradient"/>
    <linearGradient id="linear-gradient28" x1="549.2" y1="361.7" x2="543.2" y2="830.7" xlink:href="#linear-gradient"/>
    <linearGradient id="linear-gradient29" x1="566" y1="361.9" x2="560" y2="830.9" xlink:href="#linear-gradient"/>
    <linearGradient id="linear-gradient30" x1="577.9" y1="362" x2="571.9" y2="831" gradientTransform="translate(92.4 -137.3) rotate(14.7)" xlink:href="#linear-gradient"/>
    <linearGradient id="linear-gradient31" x1="584.7" y1="362.1" x2="578.7" y2="831.1" gradientTransform="translate(38 -60.6) rotate(6.1)" xlink:href="#linear-gradient"/>
    <linearGradient id="linear-gradient32" x1="586.4" y1="362.2" x2="580.4" y2="831.2" xlink:href="#linear-gradient"/>
    <linearGradient id="linear-gradient33" x1="582.6" y1="362.1" x2="576.6" y2="831.1" xlink:href="#linear-gradient"/>
    <linearGradient id="linear-gradient34" x1="573.7" y1="362" x2="567.7" y2="831" xlink:href="#linear-gradient"/>
    <linearGradient id="linear-gradient35" x1="559.8" y1="361.8" x2="553.8" y2="830.8" xlink:href="#linear-gradient"/>
    <linearGradient id="linear-gradient36" x1="541.3" y1="361.6" x2="535.3" y2="830.6" xlink:href="#linear-gradient"/>
    <linearGradient id="linear-gradient37" x1="518.4" y1="361.3" x2="512.4" y2="830.3" xlink:href="#linear-gradient"/>
    <linearGradient id="linear-gradient38" x1="491.7" y1="360.9" x2="485.7" y2="829.9" xlink:href="#linear-gradient"/>
    <linearGradient id="linear-gradient39" x1="461.9" y1="360.6" x2="455.9" y2="829.6" xlink:href="#linear-gradient"/>
    <linearGradient id="linear-gradient40" x1="429.7" y1="360.1" x2="423.7" y2="829.1" xlink:href="#linear-gradient"/>
    <linearGradient id="linear-gradient41" x1="395.5" y1="359.7" x2="389.5" y2="828.7" xlink:href="#linear-gradient"/>
    <linearGradient id="linear-gradient42" x1="175.7" y1="356.9" x2="169.7" y2="825.9" xlink:href="#linear-gradient"/>
    <linearGradient id="linear-gradient43" x1="215" y1="357.4" x2="209" y2="826.4" xlink:href="#linear-gradient"/>
    <linearGradient id="linear-gradient44" x1="337.9" y1="359" x2="331.9" y2="828" xlink:href="#linear-gradient"/>
    <linearGradient id="linear-gradient45" x1="255.8" y1="357.9" x2="249.8" y2="826.9" xlink:href="#linear-gradient"/>
    <linearGradient id="linear-gradient46" x1="297" y1="358.5" x2="291" y2="827.5" xlink:href="#linear-gradient"/>
    <linearGradient id="linear-gradient47" x1="139.3" y1="356.4" x2="133.3" y2="825.4" xlink:href="#linear-gradient"/>
    <linearGradient id="linear-gradient48" x1="80.1" y1="355.7" x2="74.1" y2="824.7" xlink:href="#linear-gradient"/>
    <linearGradient id="linear-gradient49" x1="46" y1="355.2" x2="40" y2="824.2" xlink:href="#linear-gradient"/>
    <linearGradient id="linear-gradient50" x1="59.4" y1="355.4" x2="53.4" y2="824.4" xlink:href="#linear-gradient"/>
    <linearGradient id="linear-gradient51" x1="107.1" y1="356" x2="101.1" y2="825" xlink:href="#linear-gradient"/>
    <linearGradient id="linear-gradient52" x1="578.6" y1="362.1" x2="572.6" y2="831.1" xlink:href="#linear-gradient"/>
    <linearGradient id="linear-gradient53" x1="567.6" y1="361.9" x2="561.6" y2="830.9" xlink:href="#linear-gradient"/>
    <linearGradient id="linear-gradient54" x1="552.3" y1="361.7" x2="546.3" y2="830.7" xlink:href="#linear-gradient"/>
    <linearGradient id="linear-gradient55" x1="532.5" y1="361.5" x2="526.5" y2="830.5" xlink:href="#linear-gradient"/>
    <linearGradient id="linear-gradient56" x1="40.3" y1="355.2" x2="34.3" y2="824.2" xlink:href="#linear-gradient"/>
    <linearGradient id="linear-gradient57" x1="377.1" y1="359.5" x2="371.1" y2="828.5" xlink:href="#linear-gradient"/>
    <linearGradient id="linear-gradient58" x1="585.2" y1="362.1" x2="579.2" y2="831.1" xlink:href="#linear-gradient"/>
    <linearGradient id="linear-gradient59" x1="448.8" y1="360.4" x2="442.8" y2="829.4" xlink:href="#linear-gradient"/>
    <linearGradient id="linear-gradient60" x1="414.1" y1="359.9" x2="408.1" y2="828.9" xlink:href="#linear-gradient"/>
    <linearGradient id="linear-gradient61" x1="480.6" y1="360.8" x2="474.6" y2="829.8" xlink:href="#linear-gradient"/>
    <linearGradient id="linear-gradient62" x1="508.5" y1="361.2" x2="502.5" y2="830.2" xlink:href="#linear-gradient"/>
    <linearGradient id="linear-gradient63" x1="523.7" y1="361.4" x2="517.7" y2="830.4" xlink:href="#linear-gradient"/>
    <linearGradient id="linear-gradient64" x1="498.1" y1="361" x2="492.1" y2="830" xlink:href="#linear-gradient"/>
    <linearGradient id="linear-gradient65" x1="468.7" y1="360.6" x2="462.7" y2="829.6" xlink:href="#linear-gradient"/>
    <linearGradient id="linear-gradient66" x1="361.7" y1="359.3" x2="355.7" y2="828.3" xlink:href="#linear-gradient"/>
    <linearGradient id="linear-gradient67" x1="435.9" y1="360.2" x2="429.9" y2="829.2" xlink:href="#linear-gradient"/>
    <linearGradient id="linear-gradient68" x1="400.1" y1="359.8" x2="394.1" y2="828.8" xlink:href="#linear-gradient"/>
    <linearGradient id="linear-gradient69" x1="545.2" y1="361.6" x2="539.2" y2="830.6" xlink:href="#linear-gradient"/>
    <linearGradient id="linear-gradient70" x1="562.2" y1="361.8" x2="556.2" y2="830.8" xlink:href="#linear-gradient"/>
    <linearGradient id="linear-gradient71" x1="586.4" y1="362.2" x2="580.4" y2="831.2" gradientTransform="translate(921.1 -241.2) rotate(87.6)" xlink:href="#linear-gradient"/>
    <linearGradient id="linear-gradient72" x1="585" y1="362.1" x2="579" y2="831.1" xlink:href="#linear-gradient"/>
    <linearGradient id="linear-gradient73" x1="575" y1="362" x2="569" y2="831" xlink:href="#linear-gradient"/>
    <linearGradient id="linear-gradient74" x1="280.3" y1="358.2" x2="274.3" y2="827.2" xlink:href="#linear-gradient"/>
    <linearGradient id="linear-gradient75" x1="70.6" y1="355.6" x2="64.6" y2="824.6" xlink:href="#linear-gradient"/>
    <linearGradient id="linear-gradient76" x1="95" y1="355.9" x2="89" y2="824.9" xlink:href="#linear-gradient"/>
    <linearGradient id="linear-gradient77" x1="321.5" y1="358.8" x2="315.5" y2="827.8" xlink:href="#linear-gradient"/>
    <linearGradient id="linear-gradient78" x1="52.8" y1="355.3" x2="46.8" y2="824.3" xlink:href="#linear-gradient"/>
    <linearGradient id="linear-gradient79" x1="125.2" y1="356.3" x2="119.2" y2="825.3" xlink:href="#linear-gradient"/>
    <linearGradient id="linear-gradient80" x1="238.8" y1="357.7" x2="232.8" y2="826.7" xlink:href="#linear-gradient"/>
    <linearGradient id="linear-gradient81" x1="42.7" y1="355.2" x2="36.7" y2="824.2" xlink:href="#linear-gradient"/>
    <linearGradient id="linear-gradient82" x1="160.1" y1="356.7" x2="154.1" y2="825.7" xlink:href="#linear-gradient"/>
    <linearGradient id="linear-gradient83" x1="198.4" y1="357.2" x2="192.4" y2="826.2" xlink:href="#linear-gradient"/>
  </defs>
  <g>
    <path class="st83" d="M354.1,478.8h0c1.8,0,3.3,1.3,3.3,3.1l6.7,208.8c0,1.8-1.3,3.3-3.1,3.3h0c-1.8,0-3.3-1.3-3.3-3.1l-6.7-208.8c0-1.8,1.3-3.3,3.1-3.3Z"/>
    <path class="st1" d="M306.8,688.3l24.4-207.5c.2-1.8,1.8-3,3.6-2.8h0c1.8.2,3,1.8,2.8,3.6l-24.4,207.5c-.2,1.8-1.8,3-3.6,2.8h0c-1.8-.2-3-1.8-2.8-3.6Z"/>
    <path class="st0" d="M256.8,678.1l55.2-201.5c.5-1.7,2.2-2.7,4-2.3h0c1.7.5,2.7,2.2,2.3,4l-55.2,201.5c-.5,1.7-2.2,2.7-4,2.3h0c-1.7-.5-2.7-2.2-2.3-4Z"/>
    <path class="st3" d="M209,660.6l84.6-191c.7-1.6,2.6-2.4,4.2-1.6h0c1.6.7,2.4,2.6,1.6,4.2l-84.6,191c-.7,1.6-2.6,2.4-4.2,1.6h0c-1.6-.7-2.4-2.6-1.6-4.2Z"/>
    <rect class="st8" x="115.4" y="546.5" width="215.3" height="6.4" rx="3.2" ry="3.2" transform="translate(-360.5 443.1) rotate(-57.6)"/>
    <rect class="st7" x="87" y="525.3" width="215.3" height="6.4" rx="3.2" ry="3.2" transform="translate(-331.8 328.3) rotate(-49)"/>
    <rect class="st4" x="62.2" y="500.1" width="215.3" height="6.4" rx="3.2" ry="3.2" transform="translate(-285.8 230.3) rotate(-40.4)"/>
    <rect class="st6" x="41.3" y="471.6" width="215.3" height="6.4" rx="3.2" ry="3.2" transform="translate(-227.9 149.9) rotate(-31.8)"/>
    <rect class="st5" x="24.9" y="440.2" width="215.3" height="6.4" rx="3.2" ry="3.2" transform="translate(-164.3 88.4) rotate(-23.3)"/>
    <rect class="st2" x="13.5" y="406.8" width="215.3" height="6.4" rx="3.2" ry="3.2" transform="translate(-100 44.1) rotate(-14.7)"/>
    <rect class="st71" x="7.1" y="372" width="215.3" height="6.4" rx="3.2" ry="3.2" transform="translate(-39.4 14.4) rotate(-6.1)"/>
    <rect class="st70" x="110.4" y="232.2" width="6.4" height="215.3" rx="3.2" ry="3.2" transform="translate(-230.8 438.9) rotate(-87.6)"/>
    <rect class="st67" x="114.5" y="197.1" width="6.4" height="215.3" rx="3.2" ry="3.2" transform="translate(-203.9 362.1) rotate(-79)"/>
    <rect class="st66" x="123.8" y="163" width="6.4" height="215.3" rx="3.2" ry="3.2" transform="translate(-170.6 299.7) rotate(-70.4)"/>
    <rect class="st73" x="138.1" y="130.6" width="6.4" height="215.3" rx="3.2" ry="3.2" transform="translate(-135.4 250.5) rotate(-61.8)"/>
    <rect class="st68" x="157.1" y="100.9" width="6.4" height="215.3" rx="3.2" ry="3.2" transform="translate(-102.7 212.3) rotate(-53.3)"/>
    <rect class="st69" x="180.4" y="74.1" width="6.4" height="215.3" rx="3.2" ry="3.2" transform="translate(-74.8 181.7) rotate(-44.7)"/>
    <rect class="st72" x="207.3" y="51.3" width="6.4" height="215.3" rx="3.2" ry="3.2" transform="translate(-53.2 154.7) rotate(-36.1)"/>
    <rect class="st65" x="237.3" y="32.5" width="6.4" height="215.3" rx="3.2" ry="3.2" transform="translate(-37.6 127.1) rotate(-27.6)"/>
    <rect class="st74" x="269.8" y="18.6" width="6.4" height="215.3" rx="3.2" ry="3.2" transform="translate(-26.2 95.7) rotate(-19)"/>
    <path class="st80" d="M287.8,11.4h0c1.7-.3,3.4.8,3.7,2.6l37.7,205.5c.3,1.7-.8,3.4-2.6,3.7h0c-1.7.3-3.4-.8-3.7-2.6L285.2,15.1c-.3-1.7.8-3.4,2.6-3.7Z"/>
    <path class="st79" d="M339,5.9h0c1.8,0,3.3,1.3,3.3,3.1l6.7,208.8c0,1.8-1.3,3.3-3.1,3.3h0c-1.8,0-3.3-1.3-3.3-3.1l-6.7-208.8c0-1.8,1.3-3.3,3.1-3.3Z"/>
    <path class="st76" d="M362.2,218.4l24.4-207.5c.2-1.8,1.8-3,3.6-2.8h0c1.8.2,3,1.8,2.8,3.6l-24.4,207.5c-.2,1.8-1.8,3-3.6,2.8h0c-1.8-.2-3-1.8-2.8-3.6Z"/>
    <path class="st75" d="M381.7,221.8l55.2-201.5c.5-1.7,2.2-2.7,4-2.3h0c1.7.5,2.7,2.2,2.3,4l-55.2,201.5c-.5,1.7-2.2,2.7-4,2.3h0c-1.7-.5-2.7-2.2-2.3-4Z"/>
    <path class="st77" d="M400.5,227.9l84.6-191c.7-1.6,2.6-2.4,4.2-1.6h0c1.6.7,2.4,2.6,1.6,4.2l-84.6,191c-.7,1.6-2.6,2.4-4.2,1.6h0c-1.6-.7-2.4-2.6-1.6-4.2Z"/>
    <path class="st78" d="M418.2,236.8l112.1-176.3c1-1.5,2.9-1.9,4.4-1h0c1.5,1,1.9,2.9,1,4.4l-112.1,176.3c-1,1.5-2.9,1.9-4.4,1h0c-1.5-1-1.9-2.9-1-4.4Z"/>
    <path class="st82" d="M434.2,248.2l137.2-157.5c1.2-1.3,3.2-1.5,4.5-.3h0c1.3,1.2,1.5,3.2.3,4.5l-137.2,157.5c-1.2,1.3-3.2,1.5-4.5.3h0c-1.3-1.2-1.5-3.2-.3-4.5Z"/>
    <path class="st81" d="M448.5,261.9l159-135.4c1.4-1.2,3.4-1,4.5.4h0c1.2,1.4,1,3.4-.4,4.5l-159,135.4c-1.4,1.2-3.4,1-4.5-.4h0c-1.2-1.4-1-3.4.4-4.5Z"/>
    <path class="st63" d="M460.5,277.5l177.5-110.1c1.5-.9,3.5-.5,4.4,1h0c.9,1.5.5,3.5-1,4.4l-177.5,110.1c-1.5.9-3.5.5-4.4-1h0c-.9-1.5-.5-3.5,1-4.4Z"/>
    <path class="st64" d="M470.1,294.8l191.9-82.5c1.6-.7,3.5,0,4.2,1.7h0c.7,1.6,0,3.5-1.7,4.2l-191.9,82.5c-1.6.7-3.5,0-4.2-1.7h0c-.7-1.6,0-3.5,1.7-4.2Z"/>
    <rect class="st10" x="471.1" y="286.7" width="215.3" height="6.4" rx="3.2" ry="3.2" transform="translate(-54.6 156.3) rotate(-14.7)"/>
    <rect class="st9" x="477.5" y="321.5" width="215.3" height="6.4" rx="3.2" ry="3.2" transform="translate(-31.3 64.3) rotate(-6.1)"/>
    <path class="st12" d="M478.8,355.6h0c0-1.8,1.6-3.2,3.4-3.1l208.7,8.9c1.8,0,3.2,1.6,3.1,3.4h0c0,1.8-1.6,3.2-3.4,3.1l-208.7-8.9c-1.8,0-3.2-1.6-3.1-3.4Z"/>
    <path class="st29" d="M476.5,374.7h0c.3-1.7,2-2.9,3.8-2.5l205,39.9c1.7.3,2.9,2,2.5,3.8h0c-.3,1.7-2,2.9-3.8,2.5l-205-39.9c-1.7-.3-2.9-2-2.5-3.8Z"/>
    <path class="st26" d="M471.4,393.2h0c.6-1.7,2.4-2.5,4.1-2l196.8,70c1.7.6,2.5,2.4,2,4.1h0c-.6,1.7-2.4,2.5-4.1,2l-196.8-70c-1.7-.6-2.5-2.4-2-4.1Z"/>
    <path class="st28" d="M463.6,410.8h0c.8-1.6,2.8-2.2,4.4-1.3l184.2,98.6c1.6.8,2.2,2.8,1.3,4.4h0c-.8,1.6-2.8,2.2-4.4,1.3l-184.2-98.6c-1.6-.8-2.2-2.8-1.3-4.4Z"/>
    <path class="st30" d="M453.4,427.2h0c1.1-1.4,3.1-1.7,4.5-.7l167.4,125c1.4,1.1,1.7,3.1.7,4.5h0c-1.1,1.4-3.1,1.7-4.5.7l-167.4-125c-1.4-1.1-1.7-3.1-.7-4.5Z"/>
    <path class="st27" d="M440.7,441.7h0c1.3-1.3,3.3-1.2,4.6,0l146.9,148.5c1.3,1.3,1.2,3.3,0,4.6h0c-1.3,1.3-3.3,1.2-4.6,0l-146.9-148.5c-1.3-1.3-1.2-3.3,0-4.6Z"/>
    <path class="st11" d="M426,454.1h0c1.4-1,3.5-.7,4.5.7l123.1,168.7c1,1.4.7,3.5-.7,4.5h0c-1.4,1-3.5.7-4.5-.7l-123.1-168.7c-1-1.4-.7-3.4.7-4.5Z"/>
    <path class="st25" d="M409.6,464.2h0c1.6-.8,3.5-.2,4.3,1.4l96.6,185.2c.8,1.6.2,3.5-1.4,4.3h0c-1.6.8-3.5.2-4.3-1.4l-96.6-185.2c-.8-1.6-.2-3.5,1.4-4.3Z"/>
    <path class="st33" d="M392,471.9h0c1.7-.6,3.5.3,4.1,2l67.9,197.5c.6,1.7-.3,3.5-2,4.1h0c-1.7.6-3.5-.3-4.1-2l-67.9-197.5c-.6-1.7.3-3.5,2-4.1Z"/>
    <path class="st34" d="M373.2,476.7h0c1.7-.3,3.4.8,3.7,2.6l37.7,205.5c.3,1.7-.8,3.4-2.6,3.7h0c-1.7.3-3.4-.8-3.7-2.6l-37.7-205.5c-.3-1.7.8-3.4,2.6-3.7Z"/>
  </g>
  <g>
    <path class="st35" d="M212,150l-55.9-76.7c-2.1-2.9-6.1-3.5-8.9-1.4h0c-2.9,2.2-3.5,6.2-1.4,9l55.9,76.7c1.7,2.3,4.6,3.2,7.2,2.3h0c4-1.5,5.6-6.4,3-9.7Z"/>
    <path class="st38" d="M248.5,141.5l-49.1-94.1c-1.7-3.1-5.5-4.4-8.6-2.7h0c-3.1,1.7-4.4,5.6-2.7,8.7l49.1,94.1c1.3,2.4,4,3.7,6.7,3.3h.2c4.3-.7,6.6-5.4,4.6-9.2h0Z"/>
    <path class="st39" d="M350.1,152.5l-4.5-140.5c0-3.5-3-6.3-6.6-6.2h0c-3.5,0-6.3,3-6.2,6.6l4.5,140.4c0,2.7,1.8,5,4.4,5.8h.2c4.2,1.5,8.5-1.8,8.4-6.3h0Z"/>
    <path class="st41" d="M276.7,148.1h1.6c4.4,0,7.7-4.3,6.2-8.5l-38.2-111.1c-1.1-3.4-4.8-5.1-8.2-4h0c-3.4,1.1-5.1,4.8-4,8.2l39.8,115.5h3,0Z"/>
    <path class="st36" d="M318.6,143.7l-23.4-127.4c-.6-3.4-3.9-5.7-7.3-5h-.3c-3.4.7-5.7,4-5,7.4l23.4,127.2c.5,2.6,2.5,4.6,5.1,5h.2c4.4.8,8.2-3,7.3-7.3h0Z"/>
    <path class="st40" d="M176.5,165.5l-59.6-60.2c-2.4-2.5-6.5-2.5-9,0h0c-2.5,2.6-2.5,6.6,0,9.1l59.5,60.2c2.1,2.1,5.2,2.4,7.7,1h0c3.6-2.1,4.2-7,1.3-9.9v-.2Z"/>
    <path class="st37" d="M115,216.9l-59.9-32c-3.1-1.7-7-.5-8.6,2.6h0c-1.7,3.2-.5,7,2.6,8.8l59.9,32c2.8,1.5,6.2.7,8.1-1.8h0c2.4-3.2,1.4-7.7-2.1-9.6Z"/>
    <path class="st42" d="M76.6,290.2l-57.1-11.1c-3.5-.7-6.8,1.6-7.5,5h0c-.7,3.6,1.6,7,5,7.6l57,11.1c3.3.6,6.5-1.5,7.4-4.7h0c1-3.7-1.4-7.2-5-7.9h0Z"/>
    <path class="st53" d="M92.2,251.4l-58.4-20.8c-3.3-1.2-7,.5-8.2,3.8h0c-1.2,3.5.5,7,3.8,8.3l58.4,20.8c3,1.1,6.4-.3,7.9-3.3h0c1.7-3.5,0-7.6-3.7-8.9h0Z"/>
    <path class="st54" d="M143.6,187.9l-60.6-45.2c-2.8-2.1-6.8-1.6-9,1.3h0c-2.1,3-1.6,7,1.3,9l60.6,45.2c2.4,1.8,5.7,1.7,8-.3h0c3-2.6,2.9-7.5-.4-9.8v-.2Z"/>
    <path class="st55" d="M483.7,321.6l194.8-51.1c3.4-.9,5.5-4.4,4.5-7.8h0c-.9-3.6-4.4-5.6-7.8-4.7l-194.7,51.1c-3.2.9-5.2,4-4.6,7.3h0c.6,3.7,4.3,6.1,7.9,5.1h0Z"/>
    <path class="st57" d="M480.1,301l182.8-78.6c3.2-1.4,4.7-5.1,3.3-8.4h0c-1.4-3.4-5.1-4.9-8.4-3.5l-182.8,78.6c-3,1.3-4.4,4.5-3.6,7.6h0c1,3.8,5.1,5.7,8.6,4.2h0Z"/>
    <path class="st59" d="M474.4,280.4l166.1-103.1c3-1.8,3.9-5.8,2.1-8.8h0c-1.8-3.1-5.8-4-8.8-2.2l-166.1,103.1c-2.6,1.7-3.7,4.9-2.5,7.7h0c1.4,3.8,5.9,5.3,9.3,3.1h0Z"/>
    <path class="st61" d="M466.1,259.6l145.4-123.7c2.7-2.3,3-6.4.7-9h0c-2.3-2.8-6.4-3.1-9-.8l-145.4,123.7c-2.3,1.9-2.9,5.1-1.5,7.8h0c1.8,3.7,6.6,4.6,9.7,2h0Z"/>
    <path class="st58" d="M69.2,331.6l-56.6-2.4c-3.5-.2-6.4,2.5-6.5,6v.4c-.2,3.5,2.5,6.4,5.9,6.5l56.6,2.4c3.5.2,6.4-2.5,6.5-6v-.2c.2-3.5-2.4-6.5-5.9-6.7h0Z"/>
    <path class="st60" d="M377.5,172.3l18.5-157.1c.4-3.6-2.1-6.7-5.7-7.1h0c-3.6-.4-6.7,2.1-7.1,5.7l-18.3,154.6,12.5,4Z"/>
    <path class="st62" d="M483.9,329.1c-7.6.9-5.9,13.6,1.4,12.8l201.3-21.6c3.6-.3,6.1-3.6,5.7-7.1h0c-.3-3.6-3.6-6.1-7.1-5.7l-201.3,21.6h0Z"/>
    <path class="st56" d="M421.8,203.6l70.7-159.8c1.5-3.2,0-7-3.3-8.5h0c-3.2-1.5-7,0-8.5,3.3l-69.9,157.8c-.5,1.3-.3,2.8.8,3.7,1.7,1.5,3.3,3,5,4.5s4.3,1,5.1-1h0Z"/>
    <path class="st14" d="M400.3,190.4l45.1-164.5c1-3.4-1-7-4.5-7.9h0c-3.4-1-7,1-7.9,4.5l-43.8,159.8c3.8,2.6,7.5,5.3,11.1,8.1Z"/>
    <path class="st13" d="M441,218.9l95.7-150.5c1.9-3,1-6.9-2-8.8h0c-3-2-6.9-1-8.8,1.9l-95.7,150.5c-1.5,2.3-1.2,5.4.5,7.6h0c2.8,3.4,7.9,3,10.2-.6h0Z"/>
    <path class="st15" d="M455.1,239.1l121.5-139.7c2.3-2.7,2-6.7-.6-9h0c-2.7-2.4-6.7-2.1-9,.5l-121.5,139.7c-1.9,2.2-2.1,5.3-.5,7.7h0c2.3,3.6,7.4,3.9,10.1.8h0Z"/>
    <path class="st21" d="M451,461.3l132.1,133.5c2.4,2.5,6.5,2.5,9,0h0c2.5-2.6,2.5-6.6,0-9.1l-132.1-133.5c-3-3-7.8-2.3-10,1.2h0c-1.5,2.6-1.1,5.7,1,7.8h0Z"/>
    <path class="st20" d="M437.1,480.2l106.9,146.6c2.1,2.9,6.1,3.5,8.9,1.4h0c2.9-2.2,3.5-6.2,1.4-9l-107-146.6c-2.5-3.4-7.6-3.5-10.2-.2h0c-1.7,2.3-1.8,5.5,0,7.7Z"/>
    <path class="st17" d="M420.1,498.3l80.5,154.2c1.7,3.1,5.5,4.4,8.6,2.7h0c3.1-1.7,4.4-5.6,2.7-8.7l-80.5-154.3c-2-3.8-7.1-4.6-10.2-1.5h0c-1.9,2.1-2.4,5-1.1,7.5h0Z"/>
    <path class="st22" d="M349.7,542.8l4.6,145.2c0,3.5,3,6.3,6.6,6.2h0c3.5,0,6.3-3,6.2-6.6l-4.7-145.2c-.2-4.4-4.7-7.4-8.8-5.7h0c-2.4,1-4.1,3.4-4,6.1h0Z"/>
    <path class="st19" d="M400,515.3l53.8,156.3c1.1,3.3,4.8,5.1,8.1,3.9h0c3.3-1.2,5.1-4.8,3.9-8.2l-53.8-156.3c-1.4-4.2-6.5-5.7-10-2.9h0c-2.1,1.7-3,4.5-2.1,7h0Z"/>
    <path class="st18" d="M376.6,530.4l28.1,153.1c.6,3.5,4,5.7,7.4,5.1h0c3.5-.7,5.7-4,5.1-7.5l-28.1-153.2c-.8-4.4-5.7-6.6-9.5-4.4h0c-2.3,1.4-3.6,4-3,6.6v.2Z"/>
    <path class="st16" d="M462.3,441.9l154.7,115.5c2.8,2.1,6.8,1.6,9-1.3h0c2.1-3,1.6-7-1.3-9l-154.7-115.5c-3.2-2.4-7.9-1.3-9.6,2.4h0c-1.2,2.9-.5,6.1,1.9,7.9Z"/>
    <path class="st24" d="M471.1,422.1l173.7,93c3.1,1.7,7,.5,8.6-2.6h0c1.7-3.2.5-7-2.6-8.8l-173.7-93c-3.5-1.9-7.8,0-9,3.7h0c-1,3,.3,6.2,3,7.7h0Z"/>
    <rect class="st23" x="580" y="252.4" width="12.9" height="215.3" rx="6.4" ry="6.4" transform="translate(201.6 930.5) rotate(-87.6)"/>
    <path class="st52" d="M482.2,382.3l198.2,38.6c3.5.7,6.9-1.6,7.6-5.1h0c.7-3.5-1.6-6.9-5.1-7.6l-190.3-37.1c-5.6-1-11,2.8-11.5,8.4,0,1.5.2,2.5,1.1,2.7Z"/>
    <path class="st50" d="M477.7,402.3l188.5,67.1c3.3,1.2,7-.5,8.2-3.8h0c1.2-3.5-.5-7-3.8-8.3l-188.5-67.1c-3.7-1.3-7.6.9-8.4,4.7h0c-.7,3.2,1,6.4,4.1,7.5h0Z"/>
    <path class="st51" d="M287,555.9l-32.4,118.3c-1,3.4,1,6.8,4.4,7.7h.3c3.4,1,6.8-1,7.7-4.4l32.5-118.5c1.1-4.3-2.3-8.3-6.7-7.9h-.2c-2.7.3-5,2-5.7,4.6h0Z"/>
    <path class="st49" d="M96.1,452.1l-59.1,25.4c-3.2,1.4-4.7,5.1-3.3,8.4h0c1.4,3.4,5.1,4.9,8.4,3.5l59.1-25.4c3.6-1.5,5-5.8,3-9.1h0c-1.7-2.9-5-4-8-2.7Z"/>
    <path class="st47" d="M119.8,485.3l-60.3,37.4c-3,1.8-3.9,5.8-2.1,8.8h0c1.8,3.1,5.8,4,8.8,2.2l60.3-37.4c3.4-2.1,4.1-6.7,1.4-9.7h0c-2.1-2.3-5.5-2.9-8.1-1.3h0Z"/>
    <path class="st46" d="M319.7,551.6l-15.7,133.2c-.4,3.5,2.1,6.7,5.6,7h0c3.5.4,6.7-2.1,7-5.6l15.7-133.3c.5-4.4-3.5-8-7.8-7h-.2c-2.6.6-4.5,2.8-4.9,5.4l.2.2Z"/>
    <path class="st45" d="M79,414.4l-57.6,15.1c-3.4.9-5.5,4.4-4.5,7.8h0c.9,3.6,4.4,5.6,7.8,4.7l57.6-15.1c3.6-1,5.7-4.8,4.4-8.3h0c-1.1-3.2-4.4-5-7.7-4.2h0Z"/>
    <path class="st44" d="M148.9,512.8l-60.4,51.4c-2.7,2.3-3,6.4-.7,9h0c2.3,2.8,6.4,3.1,9,.8l60.4-51.4c3.1-2.7,3-7.6-.3-10h0c-2.3-1.7-5.7-1.7-7.9.3h0Z"/>
    <path class="st31" d="M252.3,554.9l-45,101.5c-1.4,3.2,0,7,3.2,8.4h0c3.2,1.5,7,0,8.4-3.2l45-101.5c1.7-4-.9-8.5-5.2-8.9h-.2c-2.7-.3-5.3,1.2-6.4,3.7h0Z"/>
    <path class="st32" d="M69.9,373.6l-56.6,6.1c-3.5.3-6,3.5-5.7,7h0c.3,3.7,3.5,6.2,7,5.8l56.6-6.1c3.6-.3,6.2-3.7,5.7-7.1h0c-.5-3.5-3.6-6-7-5.6v-.2Z"/>
    <path class="st48" d="M181.7,533.6l-58.4,67.1c-2.3,2.7-2,6.7.6,9h0c2.7,2.4,6.7,2.1,9-.5l58.4-67.2c2.8-3.1,1.7-8.1-2-9.9h0c-2.6-1.3-5.7-.7-7.7,1.5h0Z"/>
    <path class="st43" d="M216.8,547.6l-53.5,84.1c-1.9,3-1,6.9,2,8.8h0c3,2,6.9,1,8.8-1.9l53.5-84.1c2.3-3.7.4-8.4-3.7-9.6h-.2c-2.7-.7-5.6.3-7,2.7Z"/>
  </g>
</svg>