<?xml version="1.0" encoding="UTF-8"?>
<svg id="Layer_1" data-name="Layer 1" xmlns="http://www.w3.org/2000/svg" xmlns:xlink="http://www.w3.org/1999/xlink" viewBox="0 0 1224.89 1225.38">
  <defs>
    <style>
      .cls-1 {
        fill: url(#radial-gradient);
      }

      .cls-1, .cls-2, .cls-3, .cls-4, .cls-5, .cls-6, .cls-7, .cls-8, .cls-9, .cls-10, .cls-11, .cls-12, .cls-13, .cls-14, .cls-15, .cls-16, .cls-17, .cls-18, .cls-19, .cls-20, .cls-21, .cls-22, .cls-23, .cls-24, .cls-25, .cls-26, .cls-27, .cls-28, .cls-29, .cls-30, .cls-31, .cls-32, .cls-33, .cls-34, .cls-35, .cls-36, .cls-37, .cls-38, .cls-39, .cls-40, .cls-41, .cls-42 {
        stroke-width: 0px;
      }

      .cls-2 {
        fill: url(#radial-gradient-34);
      }

      .cls-3 {
        fill: url(#radial-gradient-35);
      }

      .cls-4 {
        fill: url(#radial-gradient-24);
      }

      .cls-5 {
        fill: url(#radial-gradient-28);
      }

      .cls-6 {
        fill: url(#radial-gradient-23);
      }

      .cls-7 {
        fill: url(#radial-gradient-29);
      }

      .cls-8 {
        fill: url(#radial-gradient-39);
      }

      .cls-9 {
        fill: url(#radial-gradient-36);
      }

      .cls-10 {
        fill: url(#radial-gradient-26);
      }

      .cls-11 {
        fill: url(#radial-gradient-27);
      }

      .cls-12 {
        fill: url(#radial-gradient-22);
      }

      .cls-13 {
        fill: url(#radial-gradient-37);
      }

      .cls-14 {
        fill: url(#radial-gradient-32);
      }

      .cls-15 {
        fill: url(#radial-gradient-33);
      }

      .cls-16 {
        fill: url(#radial-gradient-31);
      }

      .cls-17 {
        fill: url(#radial-gradient-38);
      }

      .cls-18 {
        fill: url(#radial-gradient-40);
      }

      .cls-19 {
        fill: url(#radial-gradient-30);
      }

      .cls-20 {
        fill: url(#radial-gradient-41);
      }

      .cls-21 {
        fill: url(#radial-gradient-42);
      }

      .cls-22 {
        fill: url(#radial-gradient-25);
      }

      .cls-23 {
        fill: url(#radial-gradient-20);
      }

      .cls-24 {
        fill: url(#radial-gradient-21);
      }

      .cls-25 {
        fill: url(#radial-gradient-14);
      }

      .cls-26 {
        fill: url(#radial-gradient-13);
      }

      .cls-27 {
        fill: url(#radial-gradient-12);
      }

      .cls-28 {
        fill: url(#radial-gradient-15);
      }

      .cls-29 {
        fill: url(#radial-gradient-16);
      }

      .cls-30 {
        fill: url(#radial-gradient-11);
      }

      .cls-31 {
        fill: url(#radial-gradient-19);
      }

      .cls-32 {
        fill: url(#radial-gradient-18);
      }

      .cls-33 {
        fill: url(#radial-gradient-17);
      }

      .cls-34 {
        fill: url(#radial-gradient-10);
      }

      .cls-35 {
        fill: url(#radial-gradient-2);
      }

      .cls-36 {
        fill: url(#radial-gradient-3);
      }

      .cls-37 {
        fill: url(#radial-gradient-4);
      }

      .cls-38 {
        fill: url(#radial-gradient-6);
      }

      .cls-39 {
        fill: url(#radial-gradient-9);
      }

      .cls-40 {
        fill: url(#radial-gradient-8);
      }

      .cls-41 {
        fill: url(#radial-gradient-5);
      }

      .cls-42 {
        fill: url(#radial-gradient-7);
      }
    </style>
    <radialGradient id="radial-gradient" cx="1416.07" cy="1642.96" fx="1416.07" fy="1642.96" r="4753.44" gradientUnits="userSpaceOnUse">
      <stop offset="0" stop-color="#f28006"/>
      <stop offset=".17" stop-color="#fd1568"/>
      <stop offset=".37" stop-color="#9b2c56"/>
      <stop offset=".58" stop-color="#4d8e79"/>
      <stop offset=".8" stop-color="#00e89e"/>
      <stop offset="1" stop-color="#0460d9"/>
    </radialGradient>
    <radialGradient id="radial-gradient-2" cx="1233.73" cy="1550.84" fx="1233.73" fy="1550.84" r="4323.4" xlink:href="#radial-gradient"/>
    <radialGradient id="radial-gradient-3" cx="861.3" cy="1254.36" fx="861.3" fy="1254.36" r="3321.4" xlink:href="#radial-gradient"/>
    <radialGradient id="radial-gradient-4" cx="1088.4" cy="1448.9" fx="1088.4" fy="1448.9" r="3946.19" xlink:href="#radial-gradient"/>
    <radialGradient id="radial-gradient-5" cx="968.89" cy="1348.43" fx="968.89" fy="1348.43" r="3616.17" xlink:href="#radial-gradient"/>
    <radialGradient id="radial-gradient-6" cx="1634.74" cy="1710.09" fx="1634.74" fy="1710.09" r="5227.31" xlink:href="#radial-gradient"/>
    <radialGradient id="radial-gradient-7" cx="2148.62" cy="1686.4" fx="2148.62" fy="1686.4" r="6224.68" xlink:href="#radial-gradient"/>
    <radialGradient id="radial-gradient-8" cx="2588.25" cy="1317.01" fx="2588.25" fy="1317.01" r="7004.02" xlink:href="#radial-gradient"/>
    <radialGradient id="radial-gradient-9" cx="2397.6" cy="1552.9" fx="2397.6" fy="1552.9" r="6671.36" xlink:href="#radial-gradient"/>
    <radialGradient id="radial-gradient-10" cx="1884.41" cy="1731.87" fx="1884.41" fy="1731.87" r="5727.67" xlink:href="#radial-gradient"/>
    <radialGradient id="radial-gradient-11" cx="859.44" cy="893.01" fx="859.44" fy="893.01" r="2456.66" xlink:href="#radial-gradient"/>
    <radialGradient id="radial-gradient-12" cx="856.3" cy="893.02" fx="856.3" fy="893.02" r="2466.34" xlink:href="#radial-gradient"/>
    <radialGradient id="radial-gradient-13" cx="852.76" cy="904.58" fx="852.76" fy="904.58" r="2505.75" xlink:href="#radial-gradient"/>
    <radialGradient id="radial-gradient-14" cx="849.93" cy="925.03" fx="849.93" fy="925.03" r="2567.04" xlink:href="#radial-gradient"/>
    <radialGradient id="radial-gradient-15" cx="2680.76" cy="958.46" fx="2680.76" fy="958.46" r="7177.75" xlink:href="#radial-gradient"/>
    <radialGradient id="radial-gradient-16" cx="875.72" cy="1161.73" fx="875.72" fy="1161.73" r="3154.68" xlink:href="#radial-gradient"/>
    <radialGradient id="radial-gradient-17" cx="859.96" cy="893.02" fx="859.96" fy="893.02" r="2455.16" xlink:href="#radial-gradient"/>
    <radialGradient id="radial-gradient-18" cx="860.53" cy="1025.86" fx="860.53" fy="1025.86" r="2836.27" xlink:href="#radial-gradient"/>
    <radialGradient id="radial-gradient-19" cx="871.83" cy="1071.5" fx="871.83" fy="1071.5" r="2947.93" xlink:href="#radial-gradient"/>
    <radialGradient id="radial-gradient-20" cx="852.25" cy="990.38" fx="852.25" fy="990.38" r="2747.03" xlink:href="#radial-gradient"/>
    <radialGradient id="radial-gradient-21" cx="849.24" cy="953.2" fx="849.24" fy="953.2" r="2646.45" xlink:href="#radial-gradient"/>
    <radialGradient id="radial-gradient-22" cx="849.19" cy="882.63" fx="849.19" fy="882.63" r="2609.74" xlink:href="#radial-gradient"/>
    <radialGradient id="radial-gradient-23" cx="850.4" cy="870.66" fx="850.4" fy="870.66" r="2696.58" xlink:href="#radial-gradient"/>
    <radialGradient id="radial-gradient-24" cx="856.26" cy="853.45" fx="856.26" fy="853.45" r="2814.77" xlink:href="#radial-gradient"/>
    <radialGradient id="radial-gradient-25" cx="861.31" cy="772.5" fx="861.31" fy="772.5" r="3097.6" xlink:href="#radial-gradient"/>
    <radialGradient id="radial-gradient-26" cx="867.52" cy="830.93" fx="867.52" fy="830.93" r="2954.09" xlink:href="#radial-gradient"/>
    <radialGradient id="radial-gradient-27" cx="879.56" cy="803.56" fx="879.56" fy="803.56" r="3085.31" xlink:href="#radial-gradient"/>
    <radialGradient id="radial-gradient-28" cx="850.98" cy="889.89" fx="850.98" fy="889.89" r="2550.77" xlink:href="#radial-gradient"/>
    <radialGradient id="radial-gradient-29" cx="854.27" cy="892.89" fx="854.27" fy="892.89" r="2508.44" xlink:href="#radial-gradient"/>
    <radialGradient id="radial-gradient-30" cx="861.31" cy="893.02" fx="861.31" fy="893.02" r="2449.7" xlink:href="#radial-gradient"/>
    <radialGradient id="radial-gradient-31" cx="853.44" cy="893.02" fx="853.44" fy="893.02" r="2495.62" xlink:href="#radial-gradient"/>
    <radialGradient id="radial-gradient-32" cx="857.74" cy="893.02" fx="857.74" fy="893.02" r="2475.19" xlink:href="#radial-gradient"/>
    <radialGradient id="radial-gradient-33" cx="1034.25" cy="710.02" fx="1034.25" fy="710.02" r="3663.32" xlink:href="#radial-gradient"/>
    <radialGradient id="radial-gradient-34" cx="2294.75" cy="935.99" fx="2294.75" fy="935.99" r="6767.38" xlink:href="#radial-gradient"/>
    <radialGradient id="radial-gradient-35" cx="2035.06" cy="827.56" fx="2035.06" fy="827.56" r="6174.98" xlink:href="#radial-gradient"/>
    <radialGradient id="radial-gradient-36" cx="921.09" cy="740.11" fx="921.09" fy="740.11" r="3314.49" xlink:href="#radial-gradient"/>
    <radialGradient id="radial-gradient-37" cx="2516.03" cy="1033.77" fx="2516.03" fy="1033.77" r="7221.52" xlink:href="#radial-gradient"/>
    <radialGradient id="radial-gradient-38" cx="1774.79" cy="744.51" fx="1774.79" fy="744.51" r="5560.27" xlink:href="#radial-gradient"/>
    <radialGradient id="radial-gradient-39" cx="1167.19" cy="687.63" fx="1167.19" fy="687.63" r="4039.03" xlink:href="#radial-gradient"/>
    <radialGradient id="radial-gradient-40" cx="2655.02" cy="1029.69" fx="2655.02" fy="1029.69" r="7373.06" xlink:href="#radial-gradient"/>
    <radialGradient id="radial-gradient-41" cx="1536.52" cy="696.37" fx="1536.52" fy="696.37" r="4983.13" xlink:href="#radial-gradient"/>
    <radialGradient id="radial-gradient-42" cx="1333.13" cy="680.15" fx="1333.13" fy="680.15" r="4474.79" xlink:href="#radial-gradient"/>
  </defs>
  <path class="cls-1" d="M478.4,419.27l-110.49-151.41c1.59-3.54,1.38-7.84-1.17-11.33l-99.68-136.59c-3.7-5.07-10.8-6.18-15.87-2.48l-.09.07s0,0,0,0,0,0,0,0l-.09.07c-5.07,3.7-6.18,10.8-2.48,15.87l99.64,136.53c2.44,3.35,6.47,5.07,10.45,4.6l110.51,151.43c1.87,2.56,5.46,3.12,8.02,1.25,2.56-1.87,3.12-5.46,1.25-8.02Z"/>
  <path class="cls-35" d="M508.73,401.44l-77.47-148.51c2.1-3.26,2.52-7.56.52-11.4l-87.42-167.57c-2.9-5.56-9.76-7.72-15.33-4.82l-.1.05h0l-.1.05c-5.56,2.9-7.72,9.76-4.82,15.32l87.38,167.5c1.91,3.66,5.61,5.88,9.62,6.04l77.54,148.63c1.47,2.81,4.93,3.9,7.74,2.43,2.81-1.47,3.9-4.93,2.43-7.74Z"/>
  <path class="cls-36" d="M612.67,261.11l-8.02-250.11c-.2-6.27-5.45-11.19-11.72-10.99h-.23c-6.27.21-11.19,5.45-10.99,11.72l8.01,250.03c.13,4.12,2.5,7.75,6.05,9.65l3.41,106.32c.1,3.17,2.75,5.65,5.92,5.55,3.17-.1,5.65-2.75,5.55-5.92l-3.4-106.19c3.3-2.04,5.56-5.74,5.42-10.07Z"/>
  <path class="cls-37" d="M541.37,388.35l-47.85-139.15c2.55-2.93,3.62-7.11,2.21-11.23l-68.04-197.84c-2-5.81-8.19-8.96-14.02-7.28-.19.04-.38.1-.56.16-.19.06-.37.14-.55.22-5.63,2.26-8.57,8.56-6.57,14.36l70.73,205.67c1.74-.03,3.47-.13,5.21-.13.27,0,.54,0,.81,0l47.78,138.94c1.03,3,4.3,4.59,7.29,3.56,3-1.03,4.59-4.3,3.56-7.29Z"/>
  <path class="cls-41" d="M575.6,380.26l-22.81-124.21c2.97-2.44,4.67-6.36,3.89-10.6l-41.65-226.74c-1.12-6.07-6.94-10.09-13.02-8.98l-.58.11c-6.07,1.12-10.09,6.94-8.97,13.02l41.61,226.53c.74,4.03,3.62,7.23,7.4,8.54l22.85,124.41c.57,3.12,3.56,5.18,6.68,4.61,3.12-.57,5.18-3.56,4.6-6.68Z"/>
  <path class="cls-38" d="M451.08,441.41l-144.69-146.25c1.04-3.75.17-7.99-2.86-11.04l-106.05-107.19c-4.41-4.46-11.6-4.5-16.06-.09l-.16.16c-4.46,4.41-4.5,11.6-.09,16.06l106.01,107.15c2.92,2.95,7.11,3.97,10.97,2.94l144.77,146.32c2.23,2.25,5.86,2.27,8.11.04,2.25-2.23,2.27-5.86.04-8.11Z"/>
  <path class="cls-42" d="M407.76,496.59l-207.71-111.2c-.11-3.91-2.23-7.7-6-9.72l-106.58-57.06c-5.53-2.96-12.41-.88-15.37,4.65l-.05.1h0s0,0,0,0l-.05.1c-2.96,5.53-.88,12.41,4.65,15.37l106.55,57.05c3.68,1.97,7.99,1.69,11.36-.42l207.79,111.25c2.79,1.5,6.27.44,7.77-2.35,1.5-2.79.44-6.27-2.35-7.77Z"/>
  <path class="cls-40" d="M382.63,562.08l-248.36-48.37c-1.26-3.72-4.45-6.71-8.61-7.52l-101.55-19.78c-6.16-1.2-12.12,2.82-13.32,8.98l-.04.23c-1.2,6.16,2.82,12.12,8.98,13.32l101.54,19.78c4.13.81,8.16-.76,10.74-3.76l248.43,48.39c3.11.61,6.12-1.42,6.73-4.53.61-3.11-1.42-6.12-4.53-6.72Z"/>
  <path class="cls-39" d="M392.74,528.39l-231.88-82.53c-.69-3.86-3.38-7.29-7.39-8.72l-103.96-37c-5.91-2.1-12.41.98-14.51,6.89l-.04.11h0s0,0,0,0l-.04.11c-2.1,5.91.98,12.41,6.89,14.51l103.94,37c3.95,1.41,8.16.47,11.17-2.11l231.97,82.57c2.99,1.06,6.27-.5,7.33-3.48,1.06-2.99-.5-6.27-3.48-7.33Z"/>
  <path class="cls-34" d="M427.35,467.37l-177.88-132.76c.47-3.87-1.04-7.93-4.47-10.49l-107.82-80.47c-5.03-3.75-12.14-2.72-15.89,2.31l-.14.18c-3.75,5.03-2.72,12.14,2.31,15.89l107.79,80.44c3.34,2.49,7.63,2.86,11.29,1.27l177.97,132.83c2.54,1.89,6.13,1.37,8.03-1.17,1.9-2.54,1.37-6.13-1.17-8.03Z"/>
  <path class="cls-30" d="M1205.44,457.32l-.06-.22c-1.59-6.07-7.8-9.7-13.87-8.11l-346.77,90.92c-4.23,1.11-7.25,4.48-8.16,8.52-1.81,1.36-2.71,3.72-2.1,6.04.6,2.27,2.48,3.87,4.66,4.21,2.74,3.07,7.1,4.57,11.4,3.44l346.78-90.93c6.07-1.59,9.7-7.8,8.11-13.87Z"/>
  <path class="cls-27" d="M1175.66,370.68l-.09-.21c-2.48-5.76-9.16-8.43-14.92-5.95l-325.43,139.92c-3.85,1.65-6.3,5.2-6.75,9.14l-2.13.92c-2.91,1.25-4.26,4.63-3.01,7.54,1.25,2.91,4.63,4.26,7.54,3.01l2.03-.87c3.13,2.35,7.43,3.05,11.35,1.36l325.46-139.93c5.76-2.48,8.43-9.16,5.95-14.92Z"/>
  <path class="cls-26" d="M1133.3,289.44l-.06-.09s0,0,0,0h0l-.06-.1c-3.31-5.33-10.31-6.97-15.64-3.66l-295.68,183.59c-3.54,2.2-5.45,6.07-5.31,10.05l-7.24,4.49c-2.69,1.67-3.52,5.21-1.85,7.9,1.67,2.69,5.21,3.52,7.9,1.85l7.15-4.44c3.43,1.85,7.78,1.92,11.41-.33l295.72-183.61c5.33-3.31,6.97-10.31,3.66-15.64Z"/>
  <path class="cls-25" d="M1079.3,215.43l-.08-.09h0s0,0,0,0l-.07-.09c-4.07-4.78-11.23-5.35-16.01-1.29l-258.81,220.32c-3.17,2.69-4.48,6.8-3.74,10.72l-12.7,10.82c-2.41,2.05-2.7,5.68-.65,8.09,2.05,2.41,5.67,2.7,8.09.65l12.62-10.74c3.66,1.32,7.96.76,11.22-2.02l258.85-220.35c4.78-4.07,5.35-11.23,1.29-16.01Z"/>
  <path class="cls-28" d="M377.66,596.9l-255.76-10.94c-1.74-3.49-5.23-5.96-9.41-6.14l-100.86-4.31c-6.13-.26-11.31,4.49-11.57,10.62l-.02.36H.03s-.02.36-.02.36c-.26,6.13,4.49,11.31,10.62,11.57l100.86,4.31c4.18.18,7.88-1.98,9.91-5.32l255.76,10.94c3.17.14,5.84-2.32,5.98-5.49.13-3.16-2.32-5.84-5.49-5.97Z"/>
  <path class="cls-29" d="M684.93,4.02c-.07-.02-.15-.02-.23-.04-.12-.02-.23-.05-.35-.06h0s0,0,0,0c0,0,0,0,0,0-.14-.02-.27-.02-.41-.03-6.13-.51-11.61,3.92-12.33,10.08l-32.51,275.28,5.57,1.78-10.31,87.34c-.37,3.15,1.88,6,5.03,6.37,3.15.37,6-1.88,6.37-5.02l10.05-85.12,5.57,1.78,33.03-279.71c.72-6.1-3.49-11.63-9.47-12.64Z"/>
  <path class="cls-33" d="M1221.99,547.91c0-.08,0-.16-.01-.24,0-.11,0-.23-.02-.34h0s0,0,0,0h0c-.01-.11-.03-.21-.05-.32-.83-6.13-6.39-10.53-12.58-9.87l-358.41,38.44c-4.95.58-7.69,3.95-8.55,7.94-1.21,1.19-1.88,2.89-1.69,4.7.2,1.87,1.28,3.42,2.78,4.32,1.76,3.66,5.15,6.33,9.86,5.87l358.46-38.45c6.1-.65,10.56-5.99,10.22-12.05Z"/>
  <path class="cls-32" d="M861.03,52.39c-.14-.08-.28-.15-.43-.22,0,0,0,0,0,0,0,0,0,0,0,0h0c-.16-.07-.32-.12-.48-.19-.02,0-.04-.02-.06-.02-5.67-2.17-12.1.44-14.59,6.06l-124.4,281.01c-1,2.26-.42,4.89,1.42,6.54.47.42.93.85,1.39,1.27l-21.43,48.4c-1.28,2.9.03,6.28,2.92,7.57,2.9,1.28,6.29-.03,7.57-2.92l19.96-45.09c2.78,1.25,6.21.14,7.55-2.88l125.99-284.62c2.5-5.64.07-12.21-5.41-14.92Z"/>
  <path class="cls-31" d="M774.3,21.45s-.01,0-.02,0c-.19-.05-.38-.09-.57-.13-5.93-1.3-11.9,2.24-13.52,8.16l-77.91,284.63c1.68,1.13,3.35,2.28,5.01,3.44l-18.26,66.7c-.84,3.06.96,6.21,4.02,7.05,3.06.84,6.21-.96,7.05-4.02l17.11-62.5c1.65,1.24,3.29,2.5,4.92,3.77l80.2-293.01c1.67-6.11-1.92-12.41-8.02-14.09Z"/>
  <path class="cls-23" d="M941.47,95.47l-.1-.06h0s0,0,0,0l-.09-.06c-5.29-3.37-12.31-1.8-15.68,3.49l-170.4,267.99c-2.22,3.49-2.29,7.8-.42,11.35l-20.92,32.9c-1.7,2.67-.91,6.22,1.76,7.92,2.67,1.7,6.22.91,7.92-1.76l20.85-32.78c3.88.19,7.82-1.6,10.14-5.25l170.44-268.05c3.37-5.29,1.8-12.31-3.49-15.68Z"/>
  <path class="cls-24" d="M1014.88,150.28l-.08-.07h0s0,0,0,0t0,0l-.09-.08c-4.73-4.12-11.91-3.62-16.03,1.11l-216.41,248.76c-2.72,3.13-3.5,7.44-2.16,11.22l-17.57,20.2c-2.08,2.39-1.83,6.01.56,8.09h0c2.39,2.08,6.02,1.83,8.1-.56l17.56-20.19c3.81.77,7.95-.4,10.78-3.65l216.45-248.81c4.12-4.73,3.62-11.91-1.11-16.03Z"/>
  <path class="cls-12" d="M1043.75,1032.32l-235.17-237.7c-3.03-3.06-7.24-3.96-10.99-2.95l-15.59-15.75c-2.23-2.25-5.86-2.27-8.11-.04h0c-2.25,2.23-2.27,5.86-.04,8.11l15.6,15.77c-1.09,3.85-.05,8.1,2.87,11.05l235.13,237.66c4.41,4.46,11.6,4.5,16.06.09l.16-.16c4.46-4.41,4.5-11.6.09-16.06Z"/>
  <path class="cls-6" d="M976.4,1091.91l-190.48-261.01c-2.54-3.48-6.59-5.02-10.45-4.58l-19.68-26.96c-1.87-2.56-5.45-3.12-8.01-1.25h0c-2.56,1.87-3.12,5.46-1.25,8.02l19.75,27.06c-1.64,3.66-1.29,7.96,1.15,11.3l190.44,260.96c3.7,5.07,10.8,6.18,15.87,2.48l.09-.07s0,0,0,0h0s.09-.07.09-.07c5.07-3.7,6.18-10.8,2.48-15.87Z"/>
  <path class="cls-4" d="M900.91,1140.8l-143.28-274.65c-2-3.83-5.77-5.95-9.65-6.09l-21.61-41.43c-1.47-2.81-4.93-3.9-7.74-2.43h0c-2.81,1.47-3.9,4.93-2.43,7.74l21.68,41.55c-2.17,3.38-2.46,7.68-.55,11.34l143.24,274.58c2.9,5.56,9.76,7.72,15.33,4.82l.1-.05h0s.1-.06.1-.06c5.56-2.9,7.72-9.76,4.82-15.32Z"/>
  <path class="cls-22" d="M634.92,955.08c-.14-4.34-2.63-7.86-6.05-9.66l-3.13-97.77c-.1-3.17-2.75-5.65-5.92-5.55h0c-3.17.1-5.65,2.75-5.55,5.92l3.14,97.89c-3.43,2.11-5.55,5.87-5.42,9.99l8.29,258.48c.2,6.27,5.45,11.19,11.72,10.99h.12s0,0,0,0h.12c6.27-.2,11.19-5.45,10.99-11.72l-8.29-258.57Z"/>
  <path class="cls-10" d="M818.97,1177.89l-95.76-278.45c-1.41-4.1-4.83-6.74-8.63-7.45l-20.18-58.68c-1.03-3-4.29-4.59-7.29-3.56h0c-3,1.03-4.59,4.29-3.56,7.29l20.23,58.81c-2.65,3.02-3.58,7.23-2.24,11.13l95.74,278.38c2.04,5.93,8.5,9.09,14.44,7.05l.11-.04h0s.11-.04.11-.04c5.93-2.04,9.09-8.5,7.05-14.44Z"/>
  <path class="cls-11" d="M732.43,1202.36l-50.1-272.8c-.78-4.27-3.77-7.38-7.42-8.65l-14.3-77.86c-.57-3.12-3.56-5.18-6.68-4.6h0c-3.11.57-5.18,3.56-4.6,6.68l14.32,77.98c-3.07,2.6-4.62,6.63-3.87,10.68l50.09,272.71c1.13,6.17,7.06,10.25,13.23,9.12l.11-.02h0s.11-.02.11-.02c6.17-1.13,10.25-7.05,9.12-13.22Z"/>
  <path class="cls-5" d="M1101.48,963.35l-275.42-205.56c-3.43-2.56-7.76-2.85-11.33-1.3l-10.29-7.68c-2.54-1.89-6.13-1.37-8.03,1.17-1.9,2.54-1.37,6.13,1.17,8.03l10.37,7.74c-.48,3.96,1.09,7.97,4.43,10.46l275.39,205.53c5.03,3.75,12.14,2.72,15.89-2.31l.14-.18c3.75-5.03,2.72-12.14-2.31-15.9Z"/>
  <path class="cls-7" d="M1148.28,886.55l-309.38-165.64c-3.77-2.02-8.07-1.66-11.37.42l-4.95-2.65c-2.79-1.5-6.27-.44-7.77,2.35-1.5,2.79-.44,6.27,2.35,7.77l4.95,2.65c.1,3.98,2.31,7.74,5.99,9.71l309.35,165.62c5.53,2.96,12.41.88,15.37-4.65l.05-.1h0l.05-.1c2.96-5.53.88-12.41-4.65-15.37Z"/>
  <path class="cls-19" d="M1224.89,638.89c0-.12,0-.23,0-.34.08-6.18-4.75-11.34-10.97-11.61l-360.19-15.41c-6.33-.27-11.68,4.64-11.95,10.97h0s0,.04,0,.05c-.24,6.31,4.66,11.63,10.97,11.9l360.19,15.41c6.13.26,11.33-4.34,11.9-10.39,0-.05,0-.11.02-.16.01-.14.03-.28.04-.42h0Z"/>
  <path class="cls-16" d="M1214.18,729.65c1.07-6.14-2.96-12.03-9.1-13.22l-338.78-65.98c-5.02-.98-10.02.33-13.83,3.15l-7.99-1.56c-3.11-.61-6.12,1.42-6.73,4.53-.61,3.11,1.42,6.12,4.53,6.72l3.78.74c-.07.46-.15.93-.18,1.4-.18,2.57.3,4.47,1.96,4.79l352.84,68.72c6.03,1.17,11.85-2.61,13.32-8.5,0-.03.01-.06.02-.09.04-.16.09-.32.12-.48h0s0,0,0,0c.02-.08.02-.15.03-.23Z"/>
  <path class="cls-14" d="M1183.11,803.63l-335.65-119.48c-4.02-1.43-8.23-.45-11.2,2.1l-.22-.08c-2.99-1.06-6.27.5-7.33,3.48-1.06,2.99.5,6.27,3.48,7.33l.24.09c.69,3.91,3.42,7.31,7.36,8.71l335.63,119.47c5.91,2.1,12.41-.98,14.51-6.89l.08-.22c2.1-5.91-.98-12.41-6.89-14.51Z"/>
  <path class="cls-15" d="M551.87,834.07h0c-3.06-.84-6.21.96-7.05,4.02l-36.49,133.32c-3.89.99-7.03,3.94-8.11,7.9l-57.68,210.76c-1.64,5.98,1.88,12.16,7.87,13.79l.24.06h0s0,0,0,0l.23.06c5.98,1.64,12.16-1.88,13.8-7.87l57.73-210.93c1.14-4.17-.21-8.22-2.96-10.92l36.45-133.16c.84-3.05-.96-6.21-4.02-7.05Z"/>
  <path class="cls-2" d="M401.6,703.36h0c-1.25-2.92-4.62-4.26-7.53-3.01l-222.42,95.63c-3.17-2.39-7.44-3.05-11.28-1.39l-105.15,45.21c-5.76,2.48-8.43,9.16-5.95,14.92l.04.1s0,0,0,0h0s.05.11.05.11c2.48,5.76,9.16,8.43,14.92,5.95l105.18-45.22c3.92-1.68,6.38-5.28,6.82-9.17l222.32-95.58c2.91-1.25,4.25-4.62,3-7.53Z"/>
  <path class="cls-3" d="M417.46,733.77h0c-1.67-2.7-5.21-3.53-7.9-1.85l-195.56,121.42c-3.5-1.9-7.82-1.89-11.37.31l-107.35,66.66c-5.33,3.31-6.97,10.31-3.66,15.64l.12.2c3.31,5.33,10.31,6.97,15.64,3.66l107.39-66.68c3.63-2.26,5.5-6.18,5.36-10.08l195.48-121.38c2.69-1.67,3.52-5.21,1.85-7.9Z"/>
  <path class="cls-9" d="M585.54,840.64h0c-3.15-.37-6,1.88-6.37,5.02l-13.81,116.93c-3.7,1.58-6.36,4.97-6.85,9.06l-28.01,237.18c-.74,6.23,3.72,11.88,9.95,12.61l.23.03c6.23.74,11.88-3.72,12.61-9.95l28.02-237.26c.51-4.31-1.43-8.16-4.54-10.46l13.79-116.79c.37-3.15-1.88-6-5.02-6.37Z"/>
  <path class="cls-13" d="M390.44,670.91c-.8-3.06-3.94-4.9-7-4.09l-242.41,63.57c-2.77-2.83-6.88-4.13-10.95-3.06l-102.48,26.87c-6.07,1.59-9.7,7.8-8.11,13.87l.03.11h0s.03.11.03.11c1.59,6.07,7.8,9.7,13.87,8.11l102.5-26.88c4.11-1.08,7.09-4.27,8.11-8.06l242.32-63.54c3.06-.8,4.9-3.94,4.09-7Z"/>
  <path class="cls-17" d="M437.69,761.48h0c-2.05-2.41-5.67-2.7-8.08-.65l-163.98,139.6c-3.75-1.37-8.06-.67-11.23,2.03l-107.48,91.5c-4.78,4.07-5.35,11.23-1.29,16.01l.07.09h0s0,0,0,0l.07.09c4.07,4.78,11.23,5.35,16.01,1.29l107.52-91.53c3.27-2.79,4.49-6.91,3.76-10.74l163.97-139.59c2.41-2.05,2.7-5.67.65-8.09Z"/>
  <path class="cls-8" d="M519.55,822.58h0c-2.9-1.28-6.28.02-7.57,2.92l-64.32,145.29c-4,.41-7.54,2.87-9.22,6.64l-80.02,180.75c-2.54,5.74.05,12.45,5.79,14.99l.21.09c5.74,2.54,12.44-.05,14.98-5.79l80.05-180.82c1.75-3.96,1.05-8.22-1.26-11.34l64.27-145.17c1.28-2.9-.03-6.28-2.92-7.57Z"/>
  <path class="cls-18" d="M384.24,637.16c-.34-3.15-3.17-5.43-6.32-5.09l-253.84,27.22c-2.31-3.2-6.18-5.11-10.38-4.66l-100.67,10.8c-6.24.67-10.75,6.27-10.08,12.51v.12s.01,0,.01,0,0,0,0,0v.11c.68,6.24,6.28,10.75,12.52,10.09l100.68-10.8c4.21-.45,7.65-3.15,9.23-6.76l253.75-27.22c3.15-.34,5.43-3.17,5.09-6.32Z"/>
  <path class="cls-20" d="M461.82,785.87h0c-2.39-2.08-6.01-1.83-8.09.56l-130.07,149.52c-3.92-.78-8.05.51-10.77,3.64l-103.95,119.49c-4.12,4.73-3.62,11.91,1.11,16.03l.09.07h0s.09.08.09.08c4.73,4.12,11.91,3.62,16.02-1.11l103.99-119.53c2.82-3.25,3.42-7.53,2.14-11.2l130.01-149.44c2.08-2.39,1.83-6.01-.56-8.09Z"/>
  <path class="cls-21" d="M489.31,806.39h0c-2.67-1.7-6.22-.91-7.92,1.76l-96.11,151.16c-4.01-.19-7.88,1.7-10.1,5.2l-95.2,149.73c-3.37,5.29-1.8,12.31,3.49,15.68l.1.06h0s.09.06.09.06c5.29,3.37,12.32,1.8,15.68-3.49l95.24-149.79c2.32-3.64,2.26-7.97.45-11.4l96.04-151.05c1.7-2.67.91-6.22-1.76-7.92Z"/>
</svg>